<?xml version="1.0" encoding="UTF-8"?>
<svg xmlns="http://www.w3.org/2000/svg" width="1000" height="693" viewBox="0 0 1000 693" role="img" aria-label="Reproducao aproximada da fig109">
  <title>Reproducao aproximada da fig109</title>
  
  <circle cx="87.173" cy="213.734" r="86.173" fill="#ece8a6" stroke="#3f3f43" stroke-width="4.000"/>
<circle cx="362.725" cy="213.734" r="86.173" fill="#ece8a6" stroke="#3f3f43" stroke-width="4.000"/>
<circle cx="638.277" cy="203.714" r="86.173" fill="#ece8a6" stroke="#3f3f43" stroke-width="4.000"/>
<circle cx="912.827" cy="203.714" r="86.173" fill="#ece8a6" stroke="#3f3f43" stroke-width="4.000"/>
<circle cx="87.173" cy="491.290" r="86.173" fill="#ece8a6" stroke="#3f3f43" stroke-width="4.000"/>
<circle cx="362.725" cy="491.290" r="86.173" fill="#ece8a6" stroke="#3f3f43" stroke-width="4.000"/>
<circle cx="638.277" cy="491.290" r="86.173" fill="#ece8a6" stroke="#3f3f43" stroke-width="4.000"/>
<circle cx="912.827" cy="491.290" r="86.173" fill="#ece8a6" stroke="#3f3f43" stroke-width="4.000"/>
<circle cx="224.448" cy="65.437" r="64.129" fill="#ece8a6" stroke="#3f3f43" stroke-width="4.000"/>
<circle cx="500.000" cy="65.437" r="64.129" fill="#ece8a6" stroke="#3f3f43" stroke-width="4.000"/>
<circle cx="775.552" cy="65.437" r="64.129" fill="#ece8a6" stroke="#3f3f43" stroke-width="4.000"/>
<circle cx="224.448" cy="350.007" r="64.129" fill="#ece8a6" stroke="#3f3f43" stroke-width="4.000"/>
<circle cx="500.000" cy="350.007" r="64.129" fill="#ece8a6" stroke="#3f3f43" stroke-width="4.000"/>
<circle cx="775.552" cy="350.007" r="64.129" fill="#ece8a6" stroke="#3f3f43" stroke-width="4.000"/>
<circle cx="224.448" cy="627.563" r="64.129" fill="#ece8a6" stroke="#3f3f43" stroke-width="4.000"/>
<circle cx="500.000" cy="627.563" r="64.129" fill="#ece8a6" stroke="#3f3f43" stroke-width="4.000"/>
<circle cx="775.552" cy="627.563" r="64.129" fill="#ece8a6" stroke="#3f3f43" stroke-width="4.000"/>
  <polyline points="318.348,344.055 354.514,299.515 425.529,432.287 554.650,512.079 522.231,567.411 555.605,381.953 671.352,283.286 855.613,268.152 861.266,422.245 809.068,404.681 785.552,564.219 812.837,402.183 877.290,412.787 964.796,272.452" fill="none" stroke="#e83b3b" stroke-width="5.000" stroke-linecap="round" stroke-linejoin="round"/>
  <path d="M 332.556 339.249 L 336.431 321.785 L 320.135 329.163" fill="none" stroke="#e83b3b" stroke-width="4.500" stroke-linecap="round" stroke-linejoin="round"/>
  <path d="M 919.365 360.429 L 921.043 342.619 L 905.789 351.963" fill="none" stroke="#e83b3b" stroke-width="4.500" stroke-linecap="round" stroke-linejoin="round"/>
  
</svg>
